<svg width="370f" height="375" xmlns="http://www.w3.org/2000/svg">
    <defs>
        <linearGradient x1="0" y1="0.5" x2="1" y2="0.5" id="b">
            <stop offset="0%" stop-color="#8dcaff"/>
            <stop offset="100%" stop-color="#8dcaff"/>
        </linearGradient>
        <linearGradient x1="0" y1="0.5" x2="1" y2="0.5" id="c">
            <stop offset="0%" stop-color="#8dcaff"/>
            <stop offset="100%" stop-color="#8dcaff"/>
        </linearGradient>
        <linearGradient x1="0" y1="0.5" x2="1" y2="0.5" id="d">
            <stop offset="0%" stop-color="#fff"/>
            <stop offset="100%" stop-color="#fff"/>
        </linearGradient>
        <linearGradient x1="0" y1="0.5" x2="1" y2="0.5" id="e">
            <stop offset="0%" stop-color="#fff"/>
            <stop offset="100%" stop-color="#fff"/>
        </linearGradient>
        <linearGradient x1="0" y1="0.5" x2="1" y2="0.5" id="a">
            <stop offset="0%" stop-color="#00ccc2"/>
            <stop offset="100%" stop-color="#0057cc"/>
        </linearGradient>
    </defs>
    <g>
        <title>TimeHub</title>
        <g id="svg_22">
            <g class="svg-clip svg-visible" transform="translate(257.836, 36.836) scale(3.8233)" id="svg_7">
                <path fill="none" class="svg-hitbox" d="m-67.17652,-9.93905l100,0l0,100l-100,0l0,-100z" id="svg_8"/>
                <svg width="100.013" height="100" viewBox="-5 -5 100.013 100" id="svg_1" x="-66.65341" y="-9.6775">
                    <path fill="url('#a')"
                          d="m85.2,24.9c-7.3,-14.8 -22.5,-24.9 -40.2,-24.9s-33,10.1 -40.3,24.9c-3,6 -4.7,12.9 -4.7,20.1l0,45l49.8,0c11.7,0 26.5,-8.1 32.5,-18.3c9.9,-16.7 9.6,-33.6 2.9,-46.8z"
                          id="svg_5"/>
                </svg>
            </g>
            <g class="svg-clip svg-visible" transform="translate(405.936, 94.517) scale(1.4838)" id="svg_11">
                <path fill="none" class="svg-hitbox" d="m-173.07074,-25.60993l23,0l0,33l-23,0l0,-33z" id="svg_12"/>
                <svg width="23.77" height="33.641" viewBox="29.237 -4.439 23.77 33.641" id="svg_9" x="-173.07074"
                     y="-25.60993">
                    <path d="m35.513,22.692c0.003,0.001 0.002,0.003 0.002,0.003s-0.002,0.005 0.001,0.006l0.003,0.001a2.444,2.444 0 0 0 3.188,1.315a2.439,2.439 0 0 0 1.322,-3.19c-0.002,-0.006 -0.003,-0.006 -0.003,-0.015a11.819,11.819 0 0 1 0.011,-9.096a11.881,11.881 0 0 1 6.463,-6.459a2.434,2.434 0 0 0 1.32,-3.186a2.436,2.436 0 0 0 -3.19,-1.322l-0.005,-0.018c-8.571,3.547 -12.652,13.4 -9.112,21.961z"
                          fill="url('#b')" id="svg_10"/>
                </svg>
            </g>
            <g class="svg-clip svg-visible" transform="translate(435.936, 94.517) scale(1.4838)" id="svg_15">
                <path fill="none" class="svg-hitbox" d="m-173.07074,-25.60993l23,0l0,33l-23,0l0,-33z" id="svg_16"/>
                <svg width="23.77" height="33.641" viewBox="49.688 -4.439 23.77 33.641" id="svg_13" x="-173.07074"
                     y="-25.60993">
                    <path d="m67.183,22.692c-0.004,0.001 -0.003,0.003 -0.003,0.003s0.003,0.005 -0.001,0.006l-0.002,0.001a2.444,2.444 0 0 1 -3.188,1.315a2.437,2.437 0 0 1 -1.322,-3.19c0.002,-0.006 0.003,-0.006 0.003,-0.015a11.81,11.81 0 0 0 -0.012,-9.096a11.872,11.872 0 0 0 -6.463,-6.459a2.435,2.435 0 0 1 -1.319,-3.186a2.436,2.436 0 0 1 3.19,-1.322l0.006,-0.018c8.569,3.547 12.65,13.4 9.111,21.961z"
                          fill="url('#c')" id="svg_14"/>
                </svg>
            </g>
            <g class="svg-clip svg-visible" transform="translate(400.97, 111.143) scale(1.2611)" id="svg_19">
                <path fill="none" class="svg-hitbox" d="m-203.63357,-30.13242l73,0l0,87l-73,0l0,-87z" id="svg_20"/>
                <svg width="73.084" height="87.5" viewBox="14.416 5 73.084 87.5" id="svg_17" x="-203.63357"
                     y="-30.13242">
                    <path d="m75,37.5c-0.979,0 -1.912,0.194 -2.77,0.536c-0.866,-3.184 -3.775,-5.536 -7.23,-5.536a7.437,7.437 0 0 0 -3.683,0.974c-1.334,-2.085 -3.664,-3.474 -6.317,-3.474c-0.878,0 -1.717,0.159 -2.5,0.438l0,-12.938c0,-4.136 -3.364,-7.5 -7.499,-7.5c-4.136,0 -7.5,3.364 -7.5,7.5l0,38.174l-4.087,-7.079a7.45,7.45 0 0 0 -4.554,-3.494a7.438,7.438 0 0 0 -5.69,0.749c-1.735,1.001 -2.976,2.618 -3.495,4.554s-0.253,3.956 0.749,5.691l8.75,15.155c0.992,1.718 2.866,3.396 4.678,5.02c1.264,1.132 3.365,3.014 3.649,3.822l-0.001,4.907a2.5,2.5 0 0 0 2.5,2.501l35,0a2.5,2.5 0 0 0 2.5,-2.5l0,-4.994c0.034,-0.656 1.301,-2.49 2.057,-3.585c1.513,-2.192 2.943,-4.261 2.943,-6.421l0,-25c0,-4.136 -3.364,-7.5 -7.5,-7.5zm2.5,10l0,22.494c-0.034,0.656 -1.301,2.49 -2.057,3.585c-1.513,2.192 -2.943,4.261 -2.943,6.421l0,2.5l-30,0l0,-2.5c0,-2.696 -2.581,-5.008 -5.313,-7.455c-1.449,-1.298 -3.091,-2.769 -3.684,-3.795l-8.75,-15.155a2.487,2.487 0 0 1 -0.25,-1.897a2.482,2.482 0 0 1 1.165,-1.518a2.477,2.477 0 0 1 1.897,-0.25a2.486,2.486 0 0 1 1.518,1.165l8.75,15.155a2.49,2.49 0 0 0 1.751,1.216a2.5,2.5 0 0 0 2.916,-2.466l0,-47.5c0,-1.379 1.122,-2.5 2.5,-2.5a2.502,2.502 0 0 1 2.499,2.5l0,30c0,0.402 0.104,0.777 0.273,1.113a2.492,2.492 0 0 0 4.728,-1.113l0,-10c0,-1.379 1.121,-2.5 2.5,-2.5s2.5,1.121 2.5,2.5l0,10a2.496,2.496 0 1 0 4.918,0.604c0.049,-0.194 0.082,-0.394 0.082,-0.604l0,-7.5c0,-1.379 1.121,-2.5 2.5,-2.5s2.5,1.121 2.5,2.5l0,10a2.496,2.496 0 1 0 4.918,0.604c0.049,-0.194 0.082,-0.394 0.082,-0.604l0,-5c0,-1.379 1.121,-2.5 2.5,-2.5s2.5,1.121 2.5,2.5l0,2.5z"
                          fill="url('#d')" id="svg_18"/>
                </svg>
            </g>
            <g class="svg-text svg-visible" id="svg_23">
                <path fill="none" d="m67.31564,292.204c106.65,-0.711 135.114,-0.711 241.764,0" id="svg_24"/>
                <path d="m-515.91323,-53.40078l0,-73.44l-13.42,0l0,-9.96l39.45,0l0,9.96l-13.38,0l0,73.44l-12.65,0zm40.385,-76.86q-3.42,0 -5.4,-2.05q-1.97,-2.05 -1.97,-6q0,-2.2 0.51,-3.69q0.51,-1.49 1.46,-2.39q0.96,-0.9 2.32,-1.32q1.37,-0.41 3.13,-0.41q3.66,0 5.56,1.85q1.91,1.86 1.91,5.96q0,3.81 -1.93,5.93q-1.93,2.12 -5.59,2.12zm-6.4,76.86l0,-67.24l12.36,0l0,67.24l-12.36,0zm25.25,0l0,-67.24l9.57,0l1.07,7.18l0,0.05q1.47,-2.29 3.13,-3.83t3.44,-2.47q1.78,-0.93 3.66,-1.32q1.88,-0.39 3.74,-0.39q3.95,0 6.69,1.91q2.73,1.9 4.15,5.71q1.46,-2.2 3.1,-3.66q1.63,-1.47 3.39,-2.35q1.76,-0.88 3.57,-1.24q1.8,-0.37 3.66,-0.37q5.86,0 9.06,4.13q3.19,4.12 3.19,12.38l0,51.51l-12.35,0l0,-51.07q0,-2.2 -0.34,-3.72q-0.34,-1.51 -1.03,-2.44q-0.68,-0.92 -1.76,-1.34q-1.07,-0.41 -2.58,-0.41q-1.71,0 -3.42,1.24q-1.71,1.25 -3.13,3.44q0.05,0.44 0.05,0.88l0,53.42l-12.35,0l0,-51.07q0,-2.2 -0.34,-3.72q-0.34,-1.51 -1.03,-2.44q-0.68,-0.92 -1.76,-1.34q-1.07,-0.41 -2.58,-0.41q-1.66,0 -3.37,1.22q-1.71,1.22 -3.08,3.37l0,54.39l-12.35,0zm90.428,0.73q-4.35,0 -7.69,-1.61q-3.35,-1.61 -5.64,-5.03q-2.3,-3.42 -3.47,-8.76q-1.17,-5.35 -1.17,-12.87l0,-12.69q0,-6.4 0.95,-10.97q0.95,-4.56 2.49,-7.66q1.54,-3.1 3.57,-4.91q2.02,-1.81 4.17,-2.76q2.15,-0.95 4.27,-1.22q2.13,-0.27 3.93,-0.27q3.32,0 6.4,1q3.08,1 5.42,3.42t3.74,6.47q1.39,4.05 1.39,10.11q0,2.05 -0.12,4.15q-0.13,2.1 -0.32,4.12q-0.2,2.03 -0.51,3.94q-0.32,1.9 -0.66,3.51l-22.32,0l0,6.84q0,4.39 0.34,7.39q0.35,3.01 1.15,4.84q0.81,1.83 2.2,2.64q1.39,0.8 3.49,0.8q1.12,0 2.2,-0.46q1.07,-0.47 1.88,-1.54q0.8,-1.08 1.29,-2.86q0.49,-1.78 0.49,-4.42l0,-2.1l10.3,0l0,2.59q0,9.57 -4.56,13.94q-4.57,4.37 -13.21,4.37zm-5.57,-40.33l12.4,0q0.05,-0.54 0.1,-1.44q0.05,-0.9 0.08,-1.88q0.02,-0.98 0.02,-1.93l0,-1.63q0,-6.65 -1.56,-9.57q-1.57,-2.93 -4.64,-2.93q-1.61,0 -2.83,0.75q-1.22,0.76 -2.01,2.54q-0.78,1.78 -1.17,4.71q-0.39,2.93 -0.39,7.28l0,4.1zm35.16,39.6l0,-83.4l12.65,0l0,34.91l14.99,0l0,-34.91l12.64,0l0,83.4l-12.64,0l0,-38.53l-14.99,0l0,38.53l-12.65,0zm53.959,-15.72l0,-51.52l12.35,0l0,50.54q0,4.44 1.37,6.18q1.36,1.73 4,1.73q1.86,0 3.61,-1.02q1.76,-1.03 3.18,-2.93l0,-54.5l12.35,0l0,67.24l-9.42,0l-1.22,-7.18l-0.05,0q-1.47,2.3 -3.1,3.84q-1.64,1.53 -3.42,2.44q-1.78,0.9 -3.64,1.29q-1.85,0.39 -3.71,0.39q-5.91,0 -9.11,-4.1q-3.19,-4.1 -3.19,-12.4zm49.753,15.72l0,-88.82l12.35,0l0,17.92l-0.39,8.89l0.05,0.05q0.83,-1.17 1.93,-2.25q1.1,-1.07 2.49,-1.93q1.39,-0.85 3.07,-1.34q1.69,-0.49 3.69,-0.49q1.03,0 2.47,0.2q1.44,0.19 2.98,0.97q1.53,0.78 3.07,2.32q1.54,1.54 2.74,4.23q1.19,2.68 1.95,6.69q0.76,4 0.76,9.71l0,20.36q0,5.72 -0.76,9.72q-0.76,4 -1.98,6.71t-2.78,4.28q-1.56,1.56 -3.18,2.34q-1.61,0.78 -3.12,1q-1.51,0.22 -2.64,0.22q-2.34,0 -4.22,-0.58q-1.88,-0.59 -3.32,-1.59t-2.54,-2.27q-1.1,-1.27 -1.93,-2.59l-1.02,6.25l-9.67,0zm12.35,-54.44l0,40.82q0.39,0.92 0.95,1.8q0.56,0.88 1.3,1.54q0.73,0.66 1.71,1.08q0.97,0.41 2.19,0.41q1.37,0 2.49,-0.51q1.13,-0.51 1.96,-1.86q0.83,-1.34 1.29,-3.73q0.46,-2.4 0.46,-6.15l0,-25.74q0,-3.76 -0.46,-6.13q-0.46,-2.36 -1.27,-3.73q-0.8,-1.37 -1.93,-1.86q-1.12,-0.48 -2.49,-0.48q-2.29,0 -3.78,1.34q-1.49,1.34 -2.42,3.2z"
                      transform="translate(445, 322.077) scale(0.7116)" fill="url('#e')" id="svg_25"/>
            </g>
        </g>
    </g>
</svg>